<?xml version="1.0" encoding="UTF-8"?>
<svg class="svg-icon" xmlns="http://www.w3.org/2000/svg" id="Layer_1" data-name="Layer 1" viewBox="0 0 24 24" width="512" height="512"><path d="M15,6c0-3.309-2.691-6-6-6S3,2.691,3,6s2.691,6,6,6,6-2.691,6-6Zm-6,3c-1.654,0-3-1.346-3-3s1.346-3,3-3,3,1.346,3,3-1.346,3-3,3Zm13,9c0-.281-.026-.556-.076-.823l1.522-.879-1.5-2.598-1.524,.88c-.416-.356-.897-.637-1.422-.824v-1.757h-3v1.757c-.526,.186-1.007,.468-1.422,.824l-1.524-.88-1.5,2.598,1.522,.879c-.049,.267-.076,.542-.076,.823s.026,.556,.076,.823l-1.522,.879,1.5,2.598,1.524-.88c.416,.356,.897,.637,1.422,.824v1.757h3v-1.757c.526-.186,1.007-.468,1.422-.824l1.524,.88,1.5-2.598-1.522-.879c.049-.267,.076-.542,.076-.823Zm-4.5,1.5c-.827,0-1.5-.673-1.5-1.5s.673-1.5,1.5-1.5,1.5,.673,1.5,1.5-.673,1.5-1.5,1.5ZM5.5,14h3.5v3h-3.5c-1.378,0-2.5,1.122-2.5,2.5v4.5H0v-4.5c0-3.033,2.467-5.5,5.5-5.5Z"/></svg>
